<svg width="716" height="771" viewBox="0 0 716 771" fill="none" xmlns="http://www.w3.org/2000/svg">
<path d="M45 0.500001C0.500008 0.5 0.5 0.5 0.5 71.5V563.5L45 613V716.5C45 763 45 770 77 770H686.5C715 770 715 770 715 716.5V71.5C715 0.5 715 0.500002 663 0.500001H45Z" fill="#D9D9D9"/>
<path d="M45 0.500001C0.500008 0.5 0.5 0.5 0.5 71.5M715 71.5C715 0.5 715 0.500002 663 0.500001C611 0.499999 89.5 0.500001 45 0.500001M45 0.500001H663M45 716.5C45 670 45 613 45 613L0.5 563.5C0.5 563.5 0.5 142.5 0.5 71.5M0.5 71.5V563.5M45 613V716.5M45 716.5C45 763 45 770 77 770M77 770C109 770 658 770 686.5 770M77 770H686.5M686.5 770C715 770 715 770 715 716.5M715 716.5C715 663 715 142.5 715 71.5M715 716.5V71.5" stroke="black"/>
</svg>
